<mxfile host="app.diagrams.net" modified="2021-04-29T18:52:16.638Z" agent="5.0 (Windows NT 10.0; Win64; x64) AppleWebKit/537.36 (KHTML, like Gecko) Chrome/89.0.4389.128 Safari/537.36" etag="SdUOQ21A2t2fsY5WyLBb" version="14.6.9" type="github">
  <diagram id="QGh33Y2UDdRbs0nUyKbP" name="Page-1">
    <mxGraphModel dx="981" dy="526" grid="1" gridSize="10" guides="1" tooltips="1" connect="1" arrows="1" fold="1" page="1" pageScale="1" pageWidth="1100" pageHeight="850" math="0" shadow="0">
      <root>
        <mxCell id="0" />
        <mxCell id="1" parent="0" />
        <mxCell id="IGX95bzNHdqjF34hgY9H-48" style="edgeStyle=orthogonalEdgeStyle;rounded=0;orthogonalLoop=1;jettySize=auto;html=1;exitX=1;exitY=0.5;exitDx=0;exitDy=0;entryX=0;entryY=0.5;entryDx=0;entryDy=0;startArrow=none;startFill=0;fontSize=10;dashed=1;" parent="1" source="IGX95bzNHdqjF34hgY9H-9" target="IGX95bzNHdqjF34hgY9H-42" edge="1">
          <mxGeometry relative="1" as="geometry" />
        </mxCell>
        <mxCell id="IGX95bzNHdqjF34hgY9H-12" style="edgeStyle=orthogonalEdgeStyle;rounded=0;orthogonalLoop=1;jettySize=auto;html=1;entryX=0;entryY=0.5;entryDx=0;entryDy=0;fontSize=10;dashed=1;" parent="1" source="IGX95bzNHdqjF34hgY9H-9" target="IGX95bzNHdqjF34hgY9H-11" edge="1">
          <mxGeometry relative="1" as="geometry" />
        </mxCell>
        <mxCell id="IGX95bzNHdqjF34hgY9H-13" style="edgeStyle=orthogonalEdgeStyle;rounded=0;orthogonalLoop=1;jettySize=auto;html=1;entryX=0;entryY=0.5;entryDx=0;entryDy=0;fontSize=10;dashed=1;" parent="1" source="IGX95bzNHdqjF34hgY9H-9" target="IGX95bzNHdqjF34hgY9H-10" edge="1">
          <mxGeometry relative="1" as="geometry" />
        </mxCell>
        <mxCell id="IGX95bzNHdqjF34hgY9H-47" value="Consumes&lt;br&gt;via build-time&lt;br&gt;import (npm install)" style="edgeLabel;html=1;align=center;verticalAlign=middle;resizable=0;points=[];fontSize=10;" parent="IGX95bzNHdqjF34hgY9H-13" vertex="1" connectable="0">
          <mxGeometry x="-0.7125" y="-2" relative="1" as="geometry">
            <mxPoint x="17" y="-2" as="offset" />
          </mxGeometry>
        </mxCell>
        <mxCell id="IGX95bzNHdqjF34hgY9H-9" value="npm upgrade package" style="rounded=0;whiteSpace=wrap;html=1;fontSize=10;" parent="1" vertex="1">
          <mxGeometry x="60" y="360" width="120" height="60" as="geometry" />
        </mxCell>
        <mxCell id="IGX95bzNHdqjF34hgY9H-10" value="CDE" style="rounded=0;whiteSpace=wrap;html=1;fontSize=10;" parent="1" vertex="1">
          <mxGeometry x="410" y="360" width="120" height="60" as="geometry" />
        </mxCell>
        <mxCell id="IGX95bzNHdqjF34hgY9H-11" value="dashboard-server" style="rounded=0;whiteSpace=wrap;html=1;fontSize=10;" parent="1" vertex="1">
          <mxGeometry x="410" y="555" width="120" height="60" as="geometry" />
        </mxCell>
        <mxCell id="IGX95bzNHdqjF34hgY9H-15" style="edgeStyle=orthogonalEdgeStyle;rounded=0;orthogonalLoop=1;jettySize=auto;html=1;fontSize=10;" parent="1" source="IGX95bzNHdqjF34hgY9H-14" target="IGX95bzNHdqjF34hgY9H-10" edge="1">
          <mxGeometry relative="1" as="geometry">
            <mxPoint x="800" y="390" as="sourcePoint" />
          </mxGeometry>
        </mxCell>
        <mxCell id="IGX95bzNHdqjF34hgY9H-16" value="Sends Spec&lt;br&gt;(HTTPS)" style="edgeLabel;html=1;align=center;verticalAlign=middle;resizable=0;points=[];fontSize=10;" parent="IGX95bzNHdqjF34hgY9H-15" vertex="1" connectable="0">
          <mxGeometry x="-0.2333" relative="1" as="geometry">
            <mxPoint x="74" as="offset" />
          </mxGeometry>
        </mxCell>
        <mxCell id="IGX95bzNHdqjF34hgY9H-14" value="Customer" style="rounded=0;whiteSpace=wrap;html=1;fontSize=10;" parent="1" vertex="1">
          <mxGeometry x="880" y="360" width="120" height="60" as="geometry" />
        </mxCell>
        <mxCell id="IGX95bzNHdqjF34hgY9H-18" style="edgeStyle=orthogonalEdgeStyle;rounded=0;orthogonalLoop=1;jettySize=auto;html=1;exitX=0;exitY=0.5;exitDx=0;exitDy=0;entryX=1;entryY=0.5;entryDx=0;entryDy=0;fontSize=10;" parent="1" source="IGX95bzNHdqjF34hgY9H-17" target="IGX95bzNHdqjF34hgY9H-11" edge="1">
          <mxGeometry relative="1" as="geometry" />
        </mxCell>
        <mxCell id="IGX95bzNHdqjF34hgY9H-27" value="Send Spec" style="edgeLabel;html=1;align=center;verticalAlign=middle;resizable=0;points=[];fontSize=10;" parent="IGX95bzNHdqjF34hgY9H-18" vertex="1" connectable="0">
          <mxGeometry y="-3" relative="1" as="geometry">
            <mxPoint x="5" y="3" as="offset" />
          </mxGeometry>
        </mxCell>
        <mxCell id="IGX95bzNHdqjF34hgY9H-20" style="edgeStyle=orthogonalEdgeStyle;rounded=0;orthogonalLoop=1;jettySize=auto;html=1;startArrow=classic;startFill=1;fontSize=10;" parent="1" source="IGX95bzNHdqjF34hgY9H-17" target="IGX95bzNHdqjF34hgY9H-19" edge="1">
          <mxGeometry relative="1" as="geometry" />
        </mxCell>
        <mxCell id="IGX95bzNHdqjF34hgY9H-26" value="Gets Stored Spec" style="edgeLabel;html=1;align=center;verticalAlign=middle;resizable=0;points=[];fontSize=10;" parent="IGX95bzNHdqjF34hgY9H-20" vertex="1" connectable="0">
          <mxGeometry x="-0.1714" relative="1" as="geometry">
            <mxPoint as="offset" />
          </mxGeometry>
        </mxCell>
        <mxCell id="IGX95bzNHdqjF34hgY9H-17" value="CA" style="rounded=0;whiteSpace=wrap;html=1;fontSize=10;" parent="1" vertex="1">
          <mxGeometry x="640" y="555" width="120" height="60" as="geometry" />
        </mxCell>
        <mxCell id="IGX95bzNHdqjF34hgY9H-19" value="CM" style="rounded=0;whiteSpace=wrap;html=1;fontSize=10;" parent="1" vertex="1">
          <mxGeometry x="640" y="685" width="120" height="60" as="geometry" />
        </mxCell>
        <mxCell id="IGX95bzNHdqjF34hgY9H-21" value="CA" style="rounded=0;whiteSpace=wrap;html=1;fontSize=10;" parent="1" vertex="1">
          <mxGeometry x="70" y="180" width="120" height="60" as="geometry" />
        </mxCell>
        <mxCell id="IGX95bzNHdqjF34hgY9H-25" style="edgeStyle=orthogonalEdgeStyle;rounded=0;orthogonalLoop=1;jettySize=auto;html=1;startArrow=none;startFill=0;fontSize=10;exitX=0;exitY=0.5;exitDx=0;exitDy=0;" parent="1" source="fOzvGFDCfWG0-7pqr5qz-45" target="IGX95bzNHdqjF34hgY9H-21" edge="1">
          <mxGeometry relative="1" as="geometry">
            <mxPoint x="280" y="210" as="sourcePoint" />
          </mxGeometry>
        </mxCell>
        <mxCell id="IGX95bzNHdqjF34hgY9H-39" style="edgeStyle=orthogonalEdgeStyle;rounded=0;orthogonalLoop=1;jettySize=auto;html=1;exitX=0;exitY=0.5;exitDx=0;exitDy=0;startArrow=none;startFill=0;fontSize=10;entryX=1;entryY=0.5;entryDx=0;entryDy=0;" parent="1" source="IGX95bzNHdqjF34hgY9H-24" target="fOzvGFDCfWG0-7pqr5qz-44" edge="1">
          <mxGeometry relative="1" as="geometry" />
        </mxCell>
        <mxCell id="IGX95bzNHdqjF34hgY9H-24" value="PA" style="rounded=0;whiteSpace=wrap;html=1;fontSize=10;" parent="1" vertex="1">
          <mxGeometry x="440" y="180" width="120" height="60" as="geometry" />
        </mxCell>
        <mxCell id="IGX95bzNHdqjF34hgY9H-28" value="Upgrade Logic" style="rounded=0;whiteSpace=wrap;html=1;fontSize=10;" parent="1" vertex="1">
          <mxGeometry x="60" y="196" width="50" height="30" as="geometry" />
        </mxCell>
        <mxCell id="IGX95bzNHdqjF34hgY9H-29" value="CDE" style="rounded=0;whiteSpace=wrap;html=1;fontSize=10;" parent="1" vertex="1">
          <mxGeometry x="70" y="80" width="120" height="60" as="geometry" />
        </mxCell>
        <mxCell id="IGX95bzNHdqjF34hgY9H-30" style="edgeStyle=orthogonalEdgeStyle;rounded=0;orthogonalLoop=1;jettySize=auto;html=1;exitX=0;exitY=0.5;exitDx=0;exitDy=0;entryX=1;entryY=0.5;entryDx=0;entryDy=0;fontSize=10;" parent="1" source="IGX95bzNHdqjF34hgY9H-32" target="IGX95bzNHdqjF34hgY9H-29" edge="1">
          <mxGeometry relative="1" as="geometry" />
        </mxCell>
        <mxCell id="IGX95bzNHdqjF34hgY9H-31" value="Sends Spec&lt;br&gt;(HTTPS)" style="edgeLabel;html=1;align=center;verticalAlign=middle;resizable=0;points=[];fontSize=10;" parent="IGX95bzNHdqjF34hgY9H-30" vertex="1" connectable="0">
          <mxGeometry x="-0.2333" relative="1" as="geometry">
            <mxPoint x="126" as="offset" />
          </mxGeometry>
        </mxCell>
        <mxCell id="IGX95bzNHdqjF34hgY9H-32" value="Customer" style="rounded=0;whiteSpace=wrap;html=1;fontSize=10;" parent="1" vertex="1">
          <mxGeometry x="700" y="80" width="120" height="60" as="geometry" />
        </mxCell>
        <mxCell id="IGX95bzNHdqjF34hgY9H-33" value="Upgrade Logic" style="rounded=0;whiteSpace=wrap;html=1;fontSize=10;" parent="1" vertex="1">
          <mxGeometry x="60" y="100" width="50" height="30" as="geometry" />
        </mxCell>
        <mxCell id="IGX95bzNHdqjF34hgY9H-34" value="&lt;span style=&quot;color: rgb(0 , 0 , 0) ; font-family: &amp;#34;helvetica&amp;#34; ; font-size: 12px ; font-style: normal ; letter-spacing: normal ; text-align: center ; text-indent: 0px ; text-transform: none ; word-spacing: 0px ; background-color: rgb(248 , 249 , 250) ; display: inline ; float: none&quot;&gt;Current State - Request Upgraded Spec&lt;/span&gt;" style="text;whiteSpace=wrap;html=1;fontStyle=1" parent="1" vertex="1">
          <mxGeometry x="60" y="40" width="300" height="30" as="geometry" />
        </mxCell>
        <mxCell id="IGX95bzNHdqjF34hgY9H-35" value="&lt;div style=&quot;text-align: center&quot;&gt;&lt;span&gt;&lt;font face=&quot;helvetica&quot;&gt;Future State&amp;nbsp;&lt;/font&gt;&lt;/span&gt;&lt;/div&gt;" style="text;whiteSpace=wrap;html=1;fontStyle=1" parent="1" vertex="1">
          <mxGeometry x="60" y="280" width="100" height="30" as="geometry" />
        </mxCell>
        <mxCell id="IGX95bzNHdqjF34hgY9H-37" style="edgeStyle=orthogonalEdgeStyle;rounded=0;orthogonalLoop=1;jettySize=auto;html=1;startArrow=none;startFill=0;fontSize=10;" parent="1" source="IGX95bzNHdqjF34hgY9H-36" target="IGX95bzNHdqjF34hgY9H-24" edge="1">
          <mxGeometry relative="1" as="geometry" />
        </mxCell>
        <mxCell id="IGX95bzNHdqjF34hgY9H-53" value="Request Spec&lt;br&gt;(HTTPS)" style="edgeLabel;html=1;align=center;verticalAlign=middle;resizable=0;points=[];fontSize=10;" parent="IGX95bzNHdqjF34hgY9H-37" vertex="1" connectable="0">
          <mxGeometry x="-0.0571" y="1" relative="1" as="geometry">
            <mxPoint as="offset" />
          </mxGeometry>
        </mxCell>
        <mxCell id="IGX95bzNHdqjF34hgY9H-36" value="Customer" style="rounded=0;whiteSpace=wrap;html=1;fontSize=10;" parent="1" vertex="1">
          <mxGeometry x="700" y="180" width="120" height="60" as="geometry" />
        </mxCell>
        <mxCell id="IGX95bzNHdqjF34hgY9H-44" style="edgeStyle=orthogonalEdgeStyle;rounded=0;orthogonalLoop=1;jettySize=auto;html=1;exitX=0;exitY=0.5;exitDx=0;exitDy=0;startArrow=none;startFill=0;fontSize=10;" parent="1" source="IGX95bzNHdqjF34hgY9H-40" target="IGX95bzNHdqjF34hgY9H-42" edge="1">
          <mxGeometry relative="1" as="geometry" />
        </mxCell>
        <mxCell id="IGX95bzNHdqjF34hgY9H-40" value="PA" style="rounded=0;whiteSpace=wrap;html=1;fontSize=10;" parent="1" vertex="1">
          <mxGeometry x="640" y="455" width="120" height="60" as="geometry" />
        </mxCell>
        <mxCell id="IGX95bzNHdqjF34hgY9H-43" style="edgeStyle=orthogonalEdgeStyle;rounded=0;orthogonalLoop=1;jettySize=auto;html=1;startArrow=none;startFill=0;fontSize=10;" parent="1" source="IGX95bzNHdqjF34hgY9H-41" target="IGX95bzNHdqjF34hgY9H-40" edge="1">
          <mxGeometry relative="1" as="geometry">
            <mxPoint x="800" y="485" as="sourcePoint" />
          </mxGeometry>
        </mxCell>
        <mxCell id="IGX95bzNHdqjF34hgY9H-55" value="Request Spec&lt;br&gt;(HTTPS)" style="edgeLabel;html=1;align=center;verticalAlign=middle;resizable=0;points=[];fontSize=10;" parent="IGX95bzNHdqjF34hgY9H-43" vertex="1" connectable="0">
          <mxGeometry x="0.1" y="-2" relative="1" as="geometry">
            <mxPoint x="6" y="2" as="offset" />
          </mxGeometry>
        </mxCell>
        <mxCell id="IGX95bzNHdqjF34hgY9H-41" value="Customer" style="rounded=0;whiteSpace=wrap;html=1;fontSize=10;" parent="1" vertex="1">
          <mxGeometry x="880" y="455" width="120" height="60" as="geometry" />
        </mxCell>
        <mxCell id="IGX95bzNHdqjF34hgY9H-42" value="pa&lt;br&gt;dashboard-server / pa-content-service" style="rounded=0;whiteSpace=wrap;html=1;fontSize=10;" parent="1" vertex="1">
          <mxGeometry x="410" y="455" width="120" height="60" as="geometry" />
        </mxCell>
        <mxCell id="IGX95bzNHdqjF34hgY9H-46" style="edgeStyle=orthogonalEdgeStyle;rounded=0;orthogonalLoop=1;jettySize=auto;html=1;entryX=1;entryY=0.5;entryDx=0;entryDy=0;startArrow=none;startFill=0;fontSize=10;exitX=0;exitY=0.5;exitDx=0;exitDy=0;" parent="1" source="IGX95bzNHdqjF34hgY9H-45" target="IGX95bzNHdqjF34hgY9H-17" edge="1">
          <mxGeometry relative="1" as="geometry">
            <mxPoint x="800" y="585" as="sourcePoint" />
          </mxGeometry>
        </mxCell>
        <mxCell id="IGX95bzNHdqjF34hgY9H-56" value="Request Spec&lt;br&gt;(HTTPS)" style="edgeLabel;html=1;align=center;verticalAlign=middle;resizable=0;points=[];fontSize=10;" parent="IGX95bzNHdqjF34hgY9H-46" vertex="1" connectable="0">
          <mxGeometry x="0.1667" y="1" relative="1" as="geometry">
            <mxPoint x="10" y="-1" as="offset" />
          </mxGeometry>
        </mxCell>
        <mxCell id="IGX95bzNHdqjF34hgY9H-45" value="Customer" style="rounded=0;whiteSpace=wrap;html=1;fontSize=10;" parent="1" vertex="1">
          <mxGeometry x="880" y="555" width="120" height="60" as="geometry" />
        </mxCell>
        <mxCell id="IGX95bzNHdqjF34hgY9H-49" value="&lt;span style=&quot;color: rgb(0, 0, 0); font-family: helvetica; font-size: 16px; font-style: normal; letter-spacing: normal; text-align: center; text-indent: 0px; text-transform: none; word-spacing: 0px; background-color: rgb(248, 249, 250); display: inline; float: none;&quot;&gt;Upgrade Logic Consumers&lt;/span&gt;" style="text;whiteSpace=wrap;html=1;fontStyle=1;fontSize=16;" parent="1" vertex="1">
          <mxGeometry x="30" y="10" width="210" height="30" as="geometry" />
        </mxCell>
        <mxCell id="IGX95bzNHdqjF34hgY9H-54" value="&lt;div&gt;&lt;span&gt;&lt;font face=&quot;helvetica&quot;&gt;Our plan is to extract the Upgrade Logic from CA dashboard-core. The resulting&amp;nbsp;&lt;/font&gt;&lt;/span&gt;&lt;/div&gt;" style="text;whiteSpace=wrap;html=1;fontStyle=0;align=left;" parent="1" vertex="1">
          <mxGeometry x="60" y="300" width="280" height="30" as="geometry" />
        </mxCell>
        <mxCell id="fOzvGFDCfWG0-7pqr5qz-44" value="PA Upgrader" style="rounded=0;whiteSpace=wrap;html=1;fontSize=10;align=right;" vertex="1" parent="1">
          <mxGeometry x="265" y="180" width="120" height="60" as="geometry" />
        </mxCell>
        <mxCell id="fOzvGFDCfWG0-7pqr5qz-45" value="Upgrade Logic" style="rounded=0;whiteSpace=wrap;html=1;fontSize=10;" vertex="1" parent="1">
          <mxGeometry x="255" y="196" width="50" height="30" as="geometry" />
        </mxCell>
      </root>
    </mxGraphModel>
  </diagram>
</mxfile>
